<svg xmlns="http://www.w3.org/2000/svg" xmlns:svg="http://www.w3.org/2000/svg" id="svg8" width="217.993" height="256.258" version="1.1" viewBox="0 0 57.677 67.802"><metadata id="metadata5"/><g id="layer1" transform="translate(263.73917,-203.17274)"><g id="g2730" transform="matrix(0.30193828,0,0,0.30193828,-282.32919,189.8183)"><g id="g993" transform="matrix(1.4829248,0,0,1.4829248,20.021617,115.70991)"><g id="g991" stroke-miterlimit="10.433" font-size-adjust="none" font-stretch="normal" font-style="normal" font-variant="normal" font-weight="normal" style="font-style:normal;font-variant:normal;font-weight:400;font-stretch:normal;letter-spacing:normal;word-spacing:normal;text-anchor:start;fill:none;fill-opacity:1;fill-rule:evenodd;stroke:#000;stroke-linecap:butt;stroke-linejoin:miter;stroke-miterlimit:10.43299961;stroke-dasharray:none;stroke-dashoffset:0;stroke-opacity:1" letter-spacing="normal" transform="matrix(0.3,0,0,-0.3,-52.5,222.75)" word-spacing="normal" xml:space="preserve"><path style="fill:#000;stroke-width:0" id="path987" d="m 496.88,438.34 v 0.11 l -0.01,0.1 -0.02,0.09 -0.01,0.1 -0.03,0.09 -0.03,0.08 -0.03,0.09 -0.04,0.08 -0.04,0.07 -0.05,0.08 -0.05,0.07 -0.06,0.07 -0.06,0.06 -0.06,0.06 -0.07,0.06 -0.07,0.05 -0.07,0.06 -0.08,0.05 -0.16,0.09 -0.17,0.08 -0.19,0.08 -0.19,0.06 -0.2,0.06 -0.21,0.04 -0.22,0.04 -0.21,0.04 -0.23,0.03 -0.22,0.02 -0.23,0.02 -0.22,0.01 -0.23,0.01 h -0.22 l -0.22,0.01 h -0.21 l -0.21,-0.01 h -0.2 -0.2 l -0.18,-0.01 h -0.18 -0.16 -0.15 -18.78 c -2.49,0 -6.92,-1.44 -7.72,-4.14 0.09,-0.3 0.2,-0.35 0.5,-0.35 1.09,0 2.59,0.89 3.28,1.64 1.55,0 3.05,0.11 4.59,0.11 h 3.08 c 0,0 -0.2,-0.9 -0.2,-0.95 -1.94,-9.11 -4.88,-16.84 -7.06,-21.72 -0.3,-0.66 -3,-6.87 -3.69,-7.47 -2.2,0 -3.85,1.19 -4.74,3.13 -0.15,0.31 -0.15,0.5 -0.5,0.5 -1.14,0 -3.89,-1.6 -3.89,-2.44 0,-0.09 0.05,-0.2 0.11,-0.3 0.89,-2.34 3.13,-3.68 5.58,-3.68 2.53,0 5.47,1.84 7.06,3.68 1.66,1.89 4.94,10.07 6.24,13.05 h 9.61 c -0.05,-0.05 -0.1,-0.09 -0.1,-0.14 0,-0.2 0.3,-0.36 0.5,-0.36 1.1,0 3.94,1.41 3.94,2.95 0,0.35 -0.34,0.3 -0.95,0.3 h -11.96 c 1.3,4.48 2.99,8.86 3.9,13.45 h 6.57 c 1.24,0 4.74,0.25 5.63,-0.86 0.09,-0.29 -0.05,-0.79 0.09,-1.04 0.11,-0.1 0.25,-0.14 0.41,-0.14 1.19,0 3.89,1.5 3.89,2.84 z"/><path style="fill:#000;stroke-width:0" id="path989" d="m 502.19,421.9 v 0.01 0 0 0.01 h 0.01 v 0.01 0.01 0 l 0.01,0.01 v 0.01 0.01 l 0.01,0.02 v 0.02 l 0.01,0.02 v 0.02 l 0.01,0.02 0.01,0.02 v 0.03 l 0.01,0.02 0.01,0.05 0.01,0.04 0.01,0.03 v 0.02 l 0.01,0.02 v 0.02 l 0.01,0.02 v 0.02 0.02 l 0.01,0.01 v 0.01 0.01 0 0.01 0 l 0.01,0.01 v 0 0.01 0 0 0.01 0 c 0,0.19 -0.14,0.5 -0.56,0.5 -0.69,0 -3.58,-0.28 -4.46,-0.36 -0.28,-0.03 -0.76,-0.06 -0.76,-0.8 0,-0.48 0.48,-0.48 0.9,-0.48 1.67,0 1.67,-0.25 1.67,-0.53 0,-0.24 -0.07,-0.46 -0.14,-0.77 l -4.92,-19.72 c -0.17,-0.62 -0.17,-0.68 -0.17,-0.76 0,-0.52 0.42,-1.11 1.19,-1.11 0.39,0 1.04,0.17 1.44,0.9 0.09,0.21 0.4,1.46 0.57,2.19 l 0.82,3.11 c 0.09,0.52 0.45,1.84 0.54,2.36 0.36,1.33 0.36,1.36 1.05,2.48 1.12,1.71 2.86,3.69 5.58,3.69 1.95,0 2.06,-1.61 2.06,-2.44 0,-2.09 -1.5,-5.95 -2.06,-7.42 -0.38,-0.98 -0.52,-1.29 -0.52,-1.89 0,-1.84 1.53,-2.98 3.3,-2.98 3.5,0 5.03,4.79 5.03,5.33 0,0.45 -0.45,0.45 -0.56,0.45 -0.49,0 -0.53,-0.2 -0.66,-0.59 -0.81,-2.79 -2.34,-4.22 -3.7,-4.22 -0.74,0 -0.88,0.48 -0.88,1.22 0,0.79 0.19,1.25 0.82,2.82 0.4,1.08 1.84,4.77 1.84,6.72 0,0.56 0,2.03 -1.3,3.03 -0.59,0.46 -1.59,0.94 -3.23,0.94 -2.55,0 -4.39,-1.39 -5.67,-2.89 z"/></g></g><g id="g1466" transform="translate(-11.833664,1.0690805)"><path id="path14-8" d="m 96.786388,67.108982 v 23.383876 m 0,0 H 73.402605" style="fill:none;stroke:#000;stroke-width:1;stroke-linecap:butt;stroke-linejoin:miter;stroke-miterlimit:4;stroke-dasharray:none;stroke-opacity:1"/><path id="path16-7" d="M 96.786388,91.056597 V 114.44047" style="fill:none;stroke:#000;stroke-width:1.25;stroke-linecap:butt;stroke-linejoin:miter;stroke-miterlimit:4;stroke-dasharray:none;stroke-opacity:1"/><path id="path18-9" d="m 73.402605,115.00562 h 23.383783 m 0,0 v 23.38388 m 0,0 H 73.402605" style="fill:none;stroke:#000;stroke-width:1;stroke-linecap:butt;stroke-linejoin:miter;stroke-miterlimit:4;stroke-dasharray:none;stroke-opacity:1"/><path id="path20-2" d="m 96.786388,138.95429 v 23.38423 m 0,0 H 73.402605" style="fill:none;stroke:#000;stroke-width:1;stroke-linecap:butt;stroke-linejoin:miter;stroke-miterlimit:4;stroke-dasharray:none;stroke-opacity:1"/><path id="path24-2" d="m 120.73545,43.159955 v 23.38423 m 0,0 H 97.350158" style="fill:none;stroke:#000;stroke-width:1.25;stroke-linecap:butt;stroke-linejoin:miter;stroke-miterlimit:4;stroke-dasharray:none;stroke-opacity:1"/><path id="path26-3" d="m 120.73545,67.108982 v 23.383876 m 0,0 H 97.350158" style="fill:none;stroke:#000;stroke-width:1.25;stroke-linecap:butt;stroke-linejoin:miter;stroke-miterlimit:4;stroke-dasharray:none;stroke-opacity:1"/><path id="path28-7" d="m 97.350158,162.90332 h 23.385292 m 0,0 v 23.38388 m 0,0 H 97.350158 m 0,0 v -23.38388" style="fill:none;stroke:#000;stroke-width:1.25;stroke-linecap:butt;stroke-linejoin:miter;stroke-miterlimit:4;stroke-dasharray:none;stroke-opacity:1"/><path id="path32-9" d="m 144.68271,43.159955 v 23.38423 m 0,0 h -23.38387" style="fill:none;stroke:#000;stroke-width:1.25;stroke-linecap:butt;stroke-linejoin:miter;stroke-miterlimit:4;stroke-dasharray:none;stroke-opacity:1"/><path id="path34-2" d="m 121.29884,186.85094 h 23.38387 m 0,0 v 23.38391 m 0,0 h -23.38387 m 0,0 v -23.38391" style="fill:none;stroke:#000;stroke-width:1.25;stroke-linecap:butt;stroke-linejoin:miter;stroke-miterlimit:4;stroke-dasharray:none;stroke-opacity:1"/><path id="path38-8" d="m 168.63174,43.159955 v 23.38423 m 0,0 h -23.38388" style="fill:none;stroke:#000;stroke-width:1.25;stroke-linecap:butt;stroke-linejoin:miter;stroke-miterlimit:4;stroke-dasharray:none;stroke-opacity:1"/><path id="path40-9" d="m 145.24786,210.79996 h 23.38388 m 0,0 v 23.38381 m -23.38388,0 v -23.38381" style="fill:none;stroke:#000;stroke-width:1.25;stroke-linecap:butt;stroke-linejoin:miter;stroke-miterlimit:4;stroke-dasharray:none;stroke-opacity:1"/><path id="path42-7" d="m 192.58077,43.159955 v 23.38423 m 0,0 h -23.38388" style="fill:none;stroke:#000;stroke-width:1.25;stroke-linecap:butt;stroke-linejoin:miter;stroke-miterlimit:4;stroke-dasharray:none;stroke-opacity:1"/><path id="path44-3" d="m 169.19689,210.79996 h 23.38388" style="fill:none;stroke:#000;stroke-width:1.25;stroke-linecap:butt;stroke-linejoin:miter;stroke-miterlimit:4;stroke-dasharray:none;stroke-opacity:1"/><path id="path46-6" d="m 216.52979,43.159955 v 23.38423 m 0,0 H 193.1445" style="fill:none;stroke:#000;stroke-width:1.25;stroke-linecap:butt;stroke-linejoin:miter;stroke-miterlimit:4;stroke-dasharray:none;stroke-opacity:1"/><path id="path48-1" d="m 193.1445,186.85094 h 23.38529 m 0,0 v 23.38391 m 0,0 H 193.1445 m 0,0 v -23.38391" style="fill:none;stroke:#000;stroke-width:1.25;stroke-linecap:butt;stroke-linejoin:miter;stroke-miterlimit:4;stroke-dasharray:none;stroke-opacity:1"/><path id="path50-2" d="M 193.1445,234.18377 V 210.79996" style="fill:none;stroke:#000;stroke-width:1.25;stroke-linecap:butt;stroke-linejoin:miter;stroke-miterlimit:4;stroke-dasharray:none;stroke-opacity:1"/><path id="path52-9" d="M 240.47705,66.544185 H 217.09318" style="fill:none;stroke:#000;stroke-width:1.25;stroke-linecap:butt;stroke-linejoin:miter;stroke-miterlimit:4;stroke-dasharray:none;stroke-opacity:1"/><path id="path54-3" d="m 240.47705,67.108982 v 23.383876 m 0,0 h -23.38387 m 0,0 V 67.108982" style="fill:none;stroke:#000;stroke-width:1.25;stroke-linecap:butt;stroke-linejoin:miter;stroke-miterlimit:4;stroke-dasharray:none;stroke-opacity:1"/><path id="path56-1" d="m 217.09318,162.90332 h 23.38387 m 0,0 v 23.38388 m 0,0 h -23.38387 m 0,0 v -23.38388" style="fill:none;stroke:#000;stroke-width:1.25;stroke-linecap:butt;stroke-linejoin:miter;stroke-miterlimit:4;stroke-dasharray:none;stroke-opacity:1"/><path id="path60-4" d="M 264.42608,90.492858 H 241.0422" style="fill:none;stroke:#000;stroke-width:1.25;stroke-linecap:butt;stroke-linejoin:miter;stroke-miterlimit:4;stroke-dasharray:none;stroke-opacity:1"/><path id="path62-7" d="M 264.42608,114.44047 H 241.0422 m 0,0 V 91.056597" style="fill:none;stroke:#000;stroke-width:1.25;stroke-linecap:butt;stroke-linejoin:miter;stroke-miterlimit:4;stroke-dasharray:none;stroke-opacity:1"/><path id="path64-8" d="M 264.42608,138.3895 H 241.0422 m 0,0 v -23.38388" style="fill:none;stroke:#000;stroke-width:1.25;stroke-linecap:butt;stroke-linejoin:miter;stroke-miterlimit:4;stroke-dasharray:none;stroke-opacity:1"/><path id="path66-4" d="M 264.42608,162.33852 H 241.0422 m 0,0 v -23.38423" style="fill:none;stroke:#000;stroke-width:1.25;stroke-linecap:butt;stroke-linejoin:miter;stroke-miterlimit:4;stroke-dasharray:none;stroke-opacity:1"/></g><path style="fill:none;stroke:#00f;stroke-width:1.25;stroke-linecap:butt;stroke-linejoin:miter;stroke-miterlimit:4;stroke-dasharray:none;stroke-opacity:1" id="path124" d="m 243.5496,133.76575 c 0,47.377 -38.40621,85.78286 -85.78286,85.78286 -47.37701,0 -85.782751,-38.40586 -85.782751,-85.78286 0,-47.376622 38.405741,-85.782832 85.782751,-85.782832 47.37665,0 85.78286,38.40621 85.78286,85.782832 z"/></g></g></svg>